<svg xmlns="http://www.w3.org/2000/svg" width="1578.083" height="492.73" viewBox="0 0 1578.083 492.73">
  <g id="Group_155" data-name="Group 155" transform="translate(-162.107 -107.27)">
    <text id="Tech" transform="translate(608 515)" fill="#349bbb" font-size="415" font-family="LucidaSans-Demi, Lucida Sans" font-weight="300"><tspan x="0" y="0">Tech</tspan></text>
    <g id="Group_153" data-name="Group 153" transform="translate(28 -671)">
      <path id="letter-p-svgrepo-com" d="M161.477,15.42H51.936a7.105,7.105,0,0,0-1.215.273H32c-3.588,0-6.481,3.411-6.481,7.641V367.779c0,4.23,2.893,7.641,6.481,7.641H95.365c3.588,0,6.481-3.411,6.481-7.641V258.342h59.631c57.374,0,104.043-54.479,104.043-121.444C265.549,69.933,218.851,15.42,161.477,15.42ZM156.5,186.738a30.292,30.292,0,0,1-3.067.2H102.945c-.145,0-.26-.136-.405-.2a1.375,1.375,0,0,1-.694-.341,2.115,2.115,0,0,1-.608-1.467v-96.1a2.113,2.113,0,0,1,.608-1.467,1.152,1.152,0,0,1,.637-.307c.174-.068.26-.2.434-.2H153.4c1.157,0,2.315.1,3.443.2,20.976,2.149,37.526,23.675,37.526,49.84.029,26.3-16.694,47.93-37.873,49.84Z" transform="translate(108.587 812.58)" fill="#40c0e7"/>
      <path id="letter-x-svgrepo-com" d="M172.621,170.535,120.307,96.748,172.353,21.83a3.511,3.511,0,0,0,.189-3.714,3.735,3.735,0,0,0-3.281-1.91H125.338a3.737,3.737,0,0,0-3.075,1.574L93.274,58.647,64.286,17.764a3.778,3.778,0,0,0-3.075-1.574H17.3a3.716,3.716,0,0,0-3.28,1.91,3.509,3.509,0,0,0,.189,3.714l52.03,74.934L13.928,170.535a3.537,3.537,0,0,0-.221,3.729A3.774,3.774,0,0,0,17,176.19H63.151a3.758,3.758,0,0,0,3.091-1.589l27.032-38.942L120.323,174.6a3.758,3.758,0,0,0,3.091,1.589h46.132a3.8,3.8,0,0,0,3.312-1.926,3.539,3.539,0,0,0-.237-3.729Z" transform="translate(377.722 1011.81)" fill="#40c0e7"/>
      <g id="laptop-svgrepo-com" transform="translate(370.2 836.65)">
        <path id="Path_103" data-name="Path 103" d="M184.452,78.479c0,3.53-2.987,4.345-6.517,4.345H47.317c-3.53,0-6.517-.543-6.517-4.345V6.517A6.608,6.608,0,0,1,47.317,0H177.663a6.608,6.608,0,0,1,6.517,6.517V78.479Z" transform="translate(0 0)" fill="#e7eef2"/>
        <path id="Path_104" data-name="Path 104" d="M184.452,339.279c0,3.53-2.987,4.345-6.517,4.345H47.317c-3.53,0-6.517-.543-6.517-4.345V267.317a6.608,6.608,0,0,1,6.517-6.517H177.663a6.608,6.608,0,0,1,6.517,6.517v71.962Z" transform="translate(0 -172.273)" fill="#c7d5dd"/>
        <path id="Path_105" data-name="Path 105" d="M184.452,328.879c0,3.53-2.987,4.345-6.517,4.345H47.317c-3.53,0-6.517-.543-6.517-4.345V256.917a6.608,6.608,0,0,1,6.517-6.517H177.663a6.608,6.608,0,0,1,6.517,6.517v71.962Z" transform="translate(0 -165.404)" fill="#eff6f9"/>
        <path id="Path_106" data-name="Path 106" d="M184.452,84.079c0,3.53-2.987,4.345-6.517,4.345H47.317c-3.53,0-6.517-.543-6.517-4.345V12.117A6.608,6.608,0,0,1,47.317,5.6H177.663a6.608,6.608,0,0,1,6.517,6.517V84.079Z" transform="translate(0 -3.699)" fill="#00233f"/>
        <path id="Path_107" data-name="Path 107" d="M60,250.4H190.346a6.608,6.608,0,0,1,6.517,6.517v71.962c0,3.53-2.987,4.345-6.517,4.345H60" transform="translate(-12.683 -165.404)" fill="#e7eef2"/>
        <path id="Path_108" data-name="Path 108" d="M60,250.4H190.346a6.608,6.608,0,0,1,6.517,6.517v71.962c0,3.53-2.987,4.345-6.517,4.345" transform="translate(-12.683 -165.404)" fill="#d8e3ea"/>
        <path id="Path_109" data-name="Path 109" d="M191.359,321.137c0,3.259-.272,3.8-3.53,3.8H67.53c-3.259,0-3.53-.543-3.53-3.8V276.6c0-3.259.272-3.8,3.53-3.8h120.3c3.259,0,3.53.543,3.53,3.8v44.535Z" transform="translate(-15.325 -180.2)" fill="#b8cad1"/>
        <path id="Path_110" data-name="Path 110" d="M191.359,325.107c0,2.987-.272,3.53-3.53,3.53H67.53c-3.259,0-3.53-.543-3.53-3.53V281.93c0-2.987.272-3.53,3.53-3.53h120.3c3.259,0,3.53.543,3.53,3.53v43.177Z" transform="translate(-15.325 -183.899)" fill="#c7d5dd"/>
        <g id="Group_130" data-name="Group 130" transform="translate(53.291 96.402)">
          <path id="Path_111" data-name="Path 111" d="M86.26,287.259a.266.266,0,0,1-.272.272H79.472a.266.266,0,0,1-.272-.272v-2.987a.266.266,0,0,1,.272-.272h6.517a.266.266,0,0,1,.272.272Z" transform="translate(-78.657 -284)" fill="#00233f"/>
          <path id="Path_112" data-name="Path 112" d="M111.06,287.259a.266.266,0,0,1-.272.272h-6.517a.266.266,0,0,1-.272-.272v-2.987a.266.266,0,0,1,.272-.272h6.517a.266.266,0,0,1,.272.272Z" transform="translate(-95.039 -284)" fill="#00233f"/>
          <path id="Path_113" data-name="Path 113" d="M135.86,287.259c0,.272,0,.272-.272.272h-6.517a.266.266,0,0,1-.272-.272v-2.987a.266.266,0,0,1,.272-.272h6.517a.266.266,0,0,1,.272.272Z" transform="translate(-111.421 -284)" fill="#00233f"/>
          <path id="Path_114" data-name="Path 114" d="M161.46,287.259a.266.266,0,0,1-.272.272h-6.517a.266.266,0,0,1-.272-.272v-2.987a.266.266,0,0,1,.272-.272h6.517a.266.266,0,0,1,.272.272Z" transform="translate(-128.331 -284)" fill="#00233f"/>
          <path id="Path_115" data-name="Path 115" d="M186.26,287.259a.266.266,0,0,1-.272.272h-6.517a.266.266,0,0,1-.272-.272v-2.987a.266.266,0,0,1,.272-.272h6.517a.266.266,0,0,1,.272.272Z" transform="translate(-144.713 -284)" fill="#00233f"/>
          <path id="Path_116" data-name="Path 116" d="M211.06,287.259a.266.266,0,0,1-.272.272h-6.517a.266.266,0,0,1-.272-.272v-2.987a.266.266,0,0,1,.272-.272h6.517a.266.266,0,0,1,.272.272Z" transform="translate(-161.095 -284)" fill="#00233f"/>
          <path id="Path_117" data-name="Path 117" d="M236.66,287.259a.266.266,0,0,1-.272.272h-6.517a.266.266,0,0,1-.272-.272v-2.987a.266.266,0,0,1,.272-.272h6.517a.266.266,0,0,1,.272.272Z" transform="translate(-178.005 -284)" fill="#00233f"/>
          <path id="Path_118" data-name="Path 118" d="M261.46,287.259a.266.266,0,0,1-.272.272h-6.517a.266.266,0,0,1-.272-.272v-2.987a.266.266,0,0,1,.272-.272h6.517a.266.266,0,0,1,.272.272Z" transform="translate(-194.387 -284)" fill="#00233f"/>
          <path id="Path_119" data-name="Path 119" d="M286.26,287.259a.266.266,0,0,1-.272.272h-6.517a.266.266,0,0,1-.272-.272v-2.987a.266.266,0,0,1,.272-.272h6.517a.266.266,0,0,1,.272.272Z" transform="translate(-210.768 -284)" fill="#00233f"/>
          <path id="Path_120" data-name="Path 120" d="M311.86,287.259a.266.266,0,0,1-.272.272h-6.517a.266.266,0,0,1-.272-.272v-2.987a.266.266,0,0,1,.272-.272h6.246a.266.266,0,0,1,.272.272v2.987Z" transform="translate(-227.679 -284)" fill="#00233f"/>
          <path id="Path_121" data-name="Path 121" d="M336.66,287.259a.266.266,0,0,1-.272.272h-6.517a.266.266,0,0,1-.272-.272v-2.987a.266.266,0,0,1,.272-.272h6.517a.266.266,0,0,1,.272.272Z" transform="translate(-244.061 -284)" fill="#00233f"/>
          <path id="Path_122" data-name="Path 122" d="M361.46,287.259a.266.266,0,0,1-.272.272h-6.517a.266.266,0,0,1-.272-.272v-2.987a.266.266,0,0,1,.272-.272h6.517a.266.266,0,0,1,.272.272Z" transform="translate(-260.443 -284)" fill="#00233f"/>
          <path id="Path_123" data-name="Path 123" d="M386.532,287.259a.266.266,0,0,1-.272.272h-6.789a.266.266,0,0,1-.272-.272v-2.987a.266.266,0,0,1,.272-.272h6.517a.266.266,0,0,1,.272.272v2.987Z" transform="translate(-276.824 -284)" fill="#00233f"/>
          <path id="Path_124" data-name="Path 124" d="M412.66,287.259a.266.266,0,0,1-.272.272h-6.517a.266.266,0,0,1-.272-.272v-2.987a.266.266,0,0,1,.272-.272h6.517a.266.266,0,0,1,.272.272Z" transform="translate(-294.263 -284)" fill="#00233f"/>
          <path id="Path_125" data-name="Path 125" d="M84.389,305.174a.867.867,0,0,1-.815.815h-5.16a.867.867,0,0,1-.815-.815v-5.16a.867.867,0,0,1,.815-.815h5.16a.867.867,0,0,1,.815.815Z" transform="translate(-77.6 -294.04)" fill="#00233f"/>
          <path id="Path_126" data-name="Path 126" d="M108.917,305.174a.867.867,0,0,1-.815.815h-5.16c-.272,0-.543-.272-.543-.815v-5.16c0-.272.272-.815.543-.815h5.16a.867.867,0,0,1,.815.815Z" transform="translate(-93.982 -294.04)" fill="#00233f"/>
          <path id="Path_127" data-name="Path 127" d="M132.389,305.174a.867.867,0,0,1-.815.815h-5.16a.867.867,0,0,1-.815-.815v-5.16a.867.867,0,0,1,.815-.815h5.16a.867.867,0,0,1,.815.815Z" transform="translate(-109.307 -294.04)" fill="#00233f"/>
          <path id="Path_128" data-name="Path 128" d="M157.189,305.174a.867.867,0,0,1-.815.815h-5.16a.867.867,0,0,1-.815-.815v-5.16a.867.867,0,0,1,.815-.815h5.16a.867.867,0,0,1,.815.815Z" transform="translate(-125.689 -294.04)" fill="#00233f"/>
          <path id="Path_129" data-name="Path 129" d="M181.717,305.174c0,.272-.272.815-.543.815h-5.16a.867.867,0,0,1-.815-.815v-5.16a.867.867,0,0,1,.815-.815h5.16c.272,0,.543.272.543.815Z" transform="translate(-142.07 -294.04)" fill="#00233f"/>
          <path id="Path_130" data-name="Path 130" d="M205.989,305.174a.867.867,0,0,1-.815.815h-5.16a.867.867,0,0,1-.815-.815v-5.16a.867.867,0,0,1,.815-.815h5.16a.867.867,0,0,1,.815.815Z" transform="translate(-157.924 -294.04)" fill="#00233f"/>
          <path id="Path_131" data-name="Path 131" d="M229.989,305.174a.867.867,0,0,1-.815.815h-5.16a.867.867,0,0,1-.815-.815v-5.16a.867.867,0,0,1,.815-.815h5.16a.867.867,0,0,1,.815.815Z" transform="translate(-173.777 -294.04)" fill="#00233f"/>
          <path id="Path_132" data-name="Path 132" d="M254.789,305.174a.867.867,0,0,1-.815.815h-5.16a.867.867,0,0,1-.815-.815v-5.16a.867.867,0,0,1,.815-.815h5.16a.867.867,0,0,1,.815.815Z" transform="translate(-190.159 -294.04)" fill="#00233f"/>
          <path id="Path_133" data-name="Path 133" d="M278.789,305.174a.867.867,0,0,1-.815.815h-5.16a.867.867,0,0,1-.815-.815v-5.16a.867.867,0,0,1,.815-.815h5.16a.867.867,0,0,1,.815.815Z" transform="translate(-206.012 -294.04)" fill="#00233f"/>
          <path id="Path_134" data-name="Path 134" d="M304.117,305.174c0,.272-.272.815-.543.815h-5.16a.867.867,0,0,1-.815-.815v-5.16a.867.867,0,0,1,.815-.815h5.16c.272,0,.543.272.543.815Z" transform="translate(-222.923 -294.04)" fill="#00233f"/>
          <path id="Path_135" data-name="Path 135" d="M328.117,305.174a.867.867,0,0,1-.815.815h-4.888a.867.867,0,0,1-.815-.815v-5.16a.867.867,0,0,1,.815-.815h5.16a.867.867,0,0,1,.815.815v5.16Z" transform="translate(-238.776 -294.04)" fill="#00233f"/>
          <path id="Path_136" data-name="Path 136" d="M352.389,305.174c0,.272-.272.815-.543.815h-5.431a.867.867,0,0,1-.815-.815v-5.16a.867.867,0,0,1,.815-.815h5.16c.272,0,.543.272.543.815v5.16Z" transform="translate(-254.63 -294.04)" fill="#00233f"/>
          <path id="Path_137" data-name="Path 137" d="M376.389,305.174a.867.867,0,0,1-.815.815h-5.16a.867.867,0,0,1-.815-.815v-5.16a.867.867,0,0,1,.815-.815h5.431a.867.867,0,0,1,.815.815v5.16Z" transform="translate(-270.483 -294.04)" fill="#00233f"/>
          <path id="Path_138" data-name="Path 138" d="M404.176,300h-9.233c-.272,0-.543.272-.543.815v5.16c0,.272.272.815.543.815h9.233a.867.867,0,0,0,.815-.815v-5.16A.72.72,0,0,0,404.176,300Z" transform="translate(-286.865 -294.569)" fill="#00233f"/>
          <path id="Path_139" data-name="Path 139" d="M406.4,324.815a.867.867,0,0,1,.815-.815h5.16c.272,0,.543.272.543.815v5.16c0,.272-.272.815-.543.815h-5.16a.867.867,0,0,1-.815-.815Z" transform="translate(-294.791 -310.422)" fill="#00233f"/>
          <path id="Path_140" data-name="Path 140" d="M382.4,324.815a.867.867,0,0,1,.815-.815h5.16a.867.867,0,0,1,.815.815v5.16a.867.867,0,0,1-.815.815h-5.16a.867.867,0,0,1-.815-.815Z" transform="translate(-278.938 -310.422)" fill="#00233f"/>
          <path id="Path_141" data-name="Path 141" d="M357.6,324.815c0-.272.272-.815.543-.815h5.16a.867.867,0,0,1,.815.815v5.16a.867.867,0,0,1-.815.815h-5.16c-.272,0-.543-.272-.543-.815Z" transform="translate(-262.556 -310.422)" fill="#00233f"/>
          <path id="Path_142" data-name="Path 142" d="M333.6,324.815a.867.867,0,0,1,.815-.815h5.159c.272,0,.543.272.543.815v5.16c0,.272-.272.815-.543.815h-5.159a.867.867,0,0,1-.815-.815Z" transform="translate(-246.703 -310.422)" fill="#00233f"/>
          <path id="Path_143" data-name="Path 143" d="M308.8,324.815a.867.867,0,0,1,.815-.815h5.16a.867.867,0,0,1,.815.815v5.16a.867.867,0,0,1-.815.815h-5.16a.867.867,0,0,1-.815-.815Z" transform="translate(-230.321 -310.422)" fill="#00233f"/>
          <path id="Path_144" data-name="Path 144" d="M284.8,324.815a.867.867,0,0,1,.815-.815h5.16c.272,0,.543.272.543.815v5.16c0,.272-.272.815-.543.815h-5.16a.867.867,0,0,1-.815-.815Z" transform="translate(-214.468 -310.422)" fill="#00233f"/>
          <path id="Path_145" data-name="Path 145" d="M260,324.815c0-.272.272-.815.543-.815h5.16a.867.867,0,0,1,.815.815v5.16a.867.867,0,0,1-.815.815h-5.16c-.272,0-.543-.272-.543-.815Z" transform="translate(-198.086 -310.422)" fill="#00233f"/>
          <path id="Path_146" data-name="Path 146" d="M236,324.815a.867.867,0,0,1,.815-.815h5.16a.867.867,0,0,1,.815.815v5.16a.867.867,0,0,1-.815.815h-5.16a.867.867,0,0,1-.815-.815v-5.16Z" transform="translate(-182.232 -310.422)" fill="#00233f"/>
          <path id="Path_147" data-name="Path 147" d="M211.2,324.815a.867.867,0,0,1,.815-.815h5.16a.867.867,0,0,1,.815.815v5.16a.867.867,0,0,1-.815.815h-5.16a.867.867,0,0,1-.815-.815Z" transform="translate(-165.851 -310.422)" fill="#00233f"/>
          <path id="Path_148" data-name="Path 148" d="M187.2,324.815a.867.867,0,0,1,.815-.815h5.16a.867.867,0,0,1,.815.815v5.16a.867.867,0,0,1-.815.815h-5.16a.867.867,0,0,1-.815-.815Z" transform="translate(-149.997 -310.422)" fill="#00233f"/>
          <path id="Path_149" data-name="Path 149" d="M162.4,324.815a.867.867,0,0,1,.815-.815h5.16a.867.867,0,0,1,.815.815v5.16a.867.867,0,0,1-.815.815h-5.159a.867.867,0,0,1-.815-.815v-5.16Z" transform="translate(-133.615 -310.422)" fill="#00233f"/>
          <path id="Path_150" data-name="Path 150" d="M137.872,324.815a.867.867,0,0,1,.815-.815h5.16a.867.867,0,0,1,.815.815v5.16a.867.867,0,0,1-.815.815h-5.431a.867.867,0,0,1-.815-.815v-5.16Z" transform="translate(-117.233 -310.422)" fill="#00233f"/>
          <path id="Path_151" data-name="Path 151" d="M113.6,324.815a.867.867,0,0,1,.815-.815h5.16c.272,0,.543.272.543.815v5.16c0,.272-.272.815-.543.815h-5.16a.867.867,0,0,1-.815-.815Z" transform="translate(-101.38 -310.422)" fill="#00233f"/>
          <path id="Path_152" data-name="Path 152" d="M78.415,330.789h9.233a.867.867,0,0,0,.815-.815v-5.16a.867.867,0,0,0-.815-.815H78.415a.867.867,0,0,0-.815.815v5.16C77.872,330.246,78.143,330.789,78.415,330.789Z" transform="translate(-77.6 -310.422)" fill="#00233f"/>
          <path id="Path_153" data-name="Path 153" d="M364.8,349.343a.584.584,0,0,1,.543-.543h5.16c.272,0,.815.272.815.543v5.16a.867.867,0,0,1-.815.815h-5.16c-.272,0-.543-.272-.543-.815Z" transform="translate(-267.312 -326.804)" fill="#00233f"/>
          <path id="Path_154" data-name="Path 154" d="M340,349.343c0-.272.272-.543.815-.543h5.159c.272,0,.815.272.815.543v5.16a.867.867,0,0,1-.815.815h-5.159A.867.867,0,0,1,340,354.5Z" transform="translate(-250.93 -326.804)" fill="#00233f"/>
          <path id="Path_155" data-name="Path 155" d="M316,349.343c0-.272.272-.543.815-.543h5.16c.272,0,.815.272.815.543v5.16a.867.867,0,0,1-.815.815h-5.16A.867.867,0,0,1,316,354.5Z" transform="translate(-235.077 -326.804)" fill="#00233f"/>
          <path id="Path_156" data-name="Path 156" d="M291.2,349.343c0-.272.272-.543.815-.543h5.16c.272,0,.815.272.815.543v5.16a.867.867,0,0,1-.815.815h-5.16a.867.867,0,0,1-.815-.815Z" transform="translate(-218.695 -326.804)" fill="#00233f"/>
          <path id="Path_157" data-name="Path 157" d="M266.672,349.343c0-.272.272-.543.815-.543h4.888a.584.584,0,0,1,.543.543v5.16c0,.272-.272.815-.543.815h-5.16a.867.867,0,0,1-.815-.815v-5.16Z" transform="translate(-202.313 -326.804)" fill="#00233f"/>
          <path id="Path_158" data-name="Path 158" d="M242.4,349.343a.584.584,0,0,1,.543-.543h5.431c.272,0,.815.272.815.543v5.16a.867.867,0,0,1-.815.815h-5.16c-.272,0-.543-.272-.543-.815v-5.16Z" transform="translate(-186.46 -326.804)" fill="#00233f"/>
          <path id="Path_159" data-name="Path 159" d="M217.872,349.343c0-.272.272-.543.815-.543h5.16a.584.584,0,0,1,.543.543v5.16c0,.272-.272.815-.543.815h-5.431a.867.867,0,0,1-.815-.815v-5.16Z" transform="translate(-170.078 -326.804)" fill="#00233f"/>
          <path id="Path_160" data-name="Path 160" d="M193.6,349.343a.584.584,0,0,1,.543-.543h5.16c.272,0,.815.272.815.543v5.16a.867.867,0,0,1-.815.815h-4.888c-.272,0-.543-.272-.543-.815v-5.16Z" transform="translate(-154.225 -326.804)" fill="#00233f"/>
          <path id="Path_161" data-name="Path 161" d="M169.6,349.343c0-.272.272-.543.815-.543h5.16a.584.584,0,0,1,.543.543v5.16c0,.272-.272.815-.543.815h-5.16a.867.867,0,0,1-.815-.815Z" transform="translate(-138.371 -326.804)" fill="#00233f"/>
          <path id="Path_162" data-name="Path 162" d="M144.8,349.343c0-.272.272-.543.815-.543h5.16c.272,0,.815.272.815.543v5.16a.867.867,0,0,1-.815.815h-5.16a.867.867,0,0,1-.815-.815Z" transform="translate(-121.99 -326.804)" fill="#00233f"/>
          <path id="Path_163" data-name="Path 163" d="M120.8,349.343c0-.272.272-.543.815-.543h5.16c.272,0,.815.272.815.543v5.16a.867.867,0,0,1-.815.815h-5.16a.867.867,0,0,1-.815-.815S120.8,349.343,120.8,349.343Z" transform="translate(-106.136 -326.804)" fill="#00233f"/>
          <path id="Path_164" data-name="Path 164" d="M388.815,355.317h11.134a.72.72,0,0,0,.815-.815v-5.16c0-.272-.272-.543-.815-.543H388.815c-.543,0-.815.272-.815.543v5.16A.867.867,0,0,0,388.815,355.317Z" transform="translate(-282.637 -326.804)" fill="#00233f"/>
          <path id="Path_165" data-name="Path 165" d="M79.215,355.317H90.348a.72.72,0,0,0,.815-.815v-5.16c0-.272-.272-.543-.815-.543H79.215c-.543,0-.815.272-.815.543v5.16A.72.72,0,0,0,79.215,355.317Z" transform="translate(-78.128 -326.804)" fill="#00233f"/>
          <path id="Path_166" data-name="Path 166" d="M352,373.615c0-.272.272-.815.543-.815h5.16a.867.867,0,0,1,.815.815v5.16a.867.867,0,0,1-.815.815h-5.16c-.272,0-.543-.272-.543-.815Z" transform="translate(-258.857 -342.658)" fill="#00233f"/>
          <path id="Path_167" data-name="Path 167" d="M328,373.615a.867.867,0,0,1,.815-.815h5.16a.867.867,0,0,1,.815.815v5.16a.867.867,0,0,1-.815.815h-5.16a.867.867,0,0,1-.815-.815Z" transform="translate(-243.004 -342.658)" fill="#00233f"/>
          <path id="Path_168" data-name="Path 168" d="M303.2,373.615a.867.867,0,0,1,.815-.815h5.16a.867.867,0,0,1,.815.815v5.16a.867.867,0,0,1-.815.815h-5.16a.867.867,0,0,1-.815-.815Z" transform="translate(-226.622 -342.658)" fill="#00233f"/>
          <path id="Path_169" data-name="Path 169" d="M279.2,373.615a.867.867,0,0,1,.815-.815h5.16a.867.867,0,0,1,.815.815v5.16a.867.867,0,0,1-.815.815h-5.16a.867.867,0,0,1-.815-.815Z" transform="translate(-210.768 -342.658)" fill="#00233f"/>
          <path id="Path_170" data-name="Path 170" d="M254.4,373.615a.867.867,0,0,1,.815-.815h5.16a.867.867,0,0,1,.815.815v5.16a.867.867,0,0,1-.815.815h-5.16a.867.867,0,0,1-.815-.815Z" transform="translate(-194.387 -342.658)" fill="#00233f"/>
          <path id="Path_171" data-name="Path 171" d="M230.4,373.615a.867.867,0,0,1,.815-.815h5.16a.867.867,0,0,1,.815.815v5.16a.867.867,0,0,1-.815.815h-5.16a.867.867,0,0,1-.815-.815Z" transform="translate(-178.533 -342.658)" fill="#00233f"/>
          <path id="Path_172" data-name="Path 172" d="M205.6,373.615a.867.867,0,0,1,.815-.815h5.16a.867.867,0,0,1,.815.815v5.16a.867.867,0,0,1-.815.815h-5.16a.867.867,0,0,1-.815-.815Z" transform="translate(-162.151 -342.658)" fill="#00233f"/>
          <path id="Path_173" data-name="Path 173" d="M181.6,373.615a.867.867,0,0,1,.815-.815h5.16a.867.867,0,0,1,.815.815v5.16a.867.867,0,0,1-.815.815h-5.16a.867.867,0,0,1-.815-.815Z" transform="translate(-146.298 -342.658)" fill="#00233f"/>
          <path id="Path_174" data-name="Path 174" d="M156.8,373.615a.867.867,0,0,1,.815-.815h5.16a.867.867,0,0,1,.815.815v5.16a.867.867,0,0,1-.815.815h-5.16a.867.867,0,0,1-.815-.815Z" transform="translate(-129.916 -342.658)" fill="#00233f"/>
          <path id="Path_175" data-name="Path 175" d="M132.8,373.615a.867.867,0,0,1,.815-.815h5.16a.867.867,0,0,1,.815.815v5.16a.867.867,0,0,1-.815.815h-5.16a.867.867,0,0,1-.815-.815Z" transform="translate(-114.063 -342.658)" fill="#00233f"/>
          <path id="Path_176" data-name="Path 176" d="M79.215,379.589H94.693a.72.72,0,0,0,.815-.815v-5.16a.867.867,0,0,0-.815-.815H79.215a.72.72,0,0,0-.815.815v5.16A.72.72,0,0,0,79.215,379.589Z" transform="translate(-78.128 -342.658)" fill="#00233f"/>
          <path id="Path_177" data-name="Path 177" d="M376.015,379.589h15.479a.72.72,0,0,0,.815-.815v-5.16a.867.867,0,0,0-.815-.815H376.015a.72.72,0,0,0-.815.815v5.16A.867.867,0,0,0,376.015,379.589Z" transform="translate(-274.182 -342.658)" fill="#00233f"/>
          <path id="Path_178" data-name="Path 178" d="M304,398.415a.867.867,0,0,1,.815-.815h6.517a.867.867,0,0,1,.815.815v5.16a.867.867,0,0,1-.815.815h-6.517a.867.867,0,0,1-.815-.815Z" transform="translate(-227.15 -359.039)" fill="#00233f"/>
          <path id="Path_179" data-name="Path 179" d="M151.2,398.415a.867.867,0,0,1,.815-.815h6.517c.272,0,.543.272.543.815v5.16c0,.272-.272.815-.543.815h-6.517a.867.867,0,0,1-.815-.815Z" transform="translate(-126.217 -359.039)" fill="#00233f"/>
          <path id="Path_180" data-name="Path 180" d="M126.4,398.415a.867.867,0,0,1,.815-.815h5.16a.867.867,0,0,1,.815.815v5.16a.867.867,0,0,1-.815.815h-5.16a.867.867,0,0,1-.815-.815Z" transform="translate(-109.835 -359.039)" fill="#00233f"/>
          <path id="Path_181" data-name="Path 181" d="M332.8,398.415a.867.867,0,0,1,.815-.815h5.16a.867.867,0,0,1,.815.815v5.16a.867.867,0,0,1-.815.815h-5.16a.867.867,0,0,1-.815-.815Z" transform="translate(-246.174 -359.039)" fill="#00233f"/>
          <path id="Path_182" data-name="Path 182" d="M101.6,398.415c0-.272.272-.815.543-.815h5.16c.272,0,.543.272.543.815v5.16c0,.272-.272.815-.543.815h-5.16c-.272,0-.543-.272-.543-.815Z" transform="translate(-93.453 -359.039)" fill="#00233f"/>
          <path id="Path_183" data-name="Path 183" d="M77.6,398.415c0-.272.272-.815.543-.815H83.3a.867.867,0,0,1,.815.815v5.16a.867.867,0,0,1-.815.815h-5.16c-.272,0-.543-.272-.543-.815Z" transform="translate(-77.6 -359.039)" fill="#00233f"/>
          <path id="Path_184" data-name="Path 184" d="M221.232,397.6H183.215a.867.867,0,0,0-.815.815v5.16a.867.867,0,0,0,.815.815h38.018c.272,0,.543-.272.543-.815v-5.16C221.775,397.872,221.5,397.6,221.232,397.6Z" transform="translate(-146.826 -359.039)" fill="#00233f"/>
          <path id="Path_185" data-name="Path 185" d="M363.86,411.244a.266.266,0,0,1-.272.272h-6.517a.266.266,0,0,1-.272-.272v-2.172a.266.266,0,0,1,.272-.272h6.517a.266.266,0,0,1,.272.272Z" transform="translate(-262.028 -366.438)" fill="#00233f"/>
          <path id="Path_186" data-name="Path 186" d="M388.66,411.244c0,.272,0,.272-.272.272h-6.517a.266.266,0,0,1-.272-.272v-2.172a.266.266,0,0,1,.272-.272h6.517a.266.266,0,0,1,.272.272Z" transform="translate(-278.41 -366.438)" fill="#00233f"/>
          <path id="Path_187" data-name="Path 187" d="M388.66,400.044c0,.272,0,.272-.272.272h-6.517a.266.266,0,0,1-.272-.272v-2.172a.266.266,0,0,1,.272-.272h6.517a.266.266,0,0,1,.272.272Z" transform="translate(-278.41 -359.039)" fill="#00233f"/>
          <path id="Path_188" data-name="Path 188" d="M412.66,411.244c0,.272,0,.272-.272.272h-6.517a.266.266,0,0,1-.272-.272v-2.172a.266.266,0,0,1,.272-.272h6.517a.266.266,0,0,1,.272.272Z" transform="translate(-294.263 -366.438)" fill="#00233f"/>
        </g>
        <path id="Path_189" data-name="Path 189" d="M236.073,449.379a1.168,1.168,0,0,1-1.086,1.086h-31.5a1.168,1.168,0,0,1-1.086-1.086V433.086A1.168,1.168,0,0,1,203.486,432h31.229a1.168,1.168,0,0,1,1.086,1.086v16.293Z" transform="translate(-106.746 -285.361)" fill="#c7d5dd"/>
        <path id="Path_190" data-name="Path 190" d="M236.073,452.022a1.168,1.168,0,0,1-1.086,1.086h-31.5a1.168,1.168,0,0,1-1.086-1.086V437.086A1.168,1.168,0,0,1,203.486,436h31.229a1.168,1.168,0,0,1,1.086,1.086v14.935Z" transform="translate(-106.746 -288.003)" fill="#d8e3ea"/>
        <circle id="Ellipse_61" data-name="Ellipse 61" cx="2.172" cy="2.172" r="2.172" transform="translate(176.848 88.255)" fill="#e7eef2"/>
        <path id="Path_191" data-name="Path 191" d="M189.575,90.281V26.738c0-3.259,0-5.974-3.259-5.974H60.859C57.6,20.492,57.6,23.208,57.6,26.738V90.553H189.575Z" transform="translate(-11.097 -13.703)" fill="#1feadb"/>
        <path id="Path_192" data-name="Path 192" d="M189.575,90.281V26.738c0-3.259,0-5.974-3.259-5.974H60.859C57.6,20.492,57.6,23.208,57.6,26.738" transform="translate(-11.097 -13.703)" fill="#15cccc"/>
        <path id="Path_193" data-name="Path 193" d="M186.316,20H60.859C57.6,20,57.6,22.716,57.6,26.246v5.7c0-3.259,0-5.974,3.259-5.974H186.045c3.259,0,3.259,2.716,3.259,5.974v-5.7C189.575,22.716,189.575,20,186.316,20Z" transform="translate(-11.097 -13.211)" fill="#1ab5b5"/>
        <path id="Path_194" data-name="Path 194" d="M201.135,252.36c0,.543-.543.815-1.358.815H94.958c-.815,0-1.358-.272-1.358-.815v-4.345c0-.543.543-.815,1.358-.815h104.82c.815,0,1.358.272,1.358.815Z" transform="translate(-34.877 -163.29)" fill="#08446d"/>
        <path id="Path_195" data-name="Path 195" d="M93.6,247.215c0-.543.543-.815,1.358-.815h104.82c.815,0,1.358.272,1.358.815v4.345c0,.543-.543.815-1.358.815" transform="translate(-34.877 -162.761)" fill="#00233f"/>
        <path id="Path_196" data-name="Path 196" d="M246.716,236.572l1.629,1.629,1.086-1.086-2.716-2.716L244,237.116l1.086,1.086Z" transform="translate(-134.225 -154.835)" fill="#d8e3ea"/>
        <circle id="Ellipse_62" data-name="Ellipse 62" cx="1.086" cy="1.086" r="1.086" transform="translate(111.404 3.53)" fill="#27d68a"/>
        <path id="Path_197" data-name="Path 197" d="M252,10.4a1.168,1.168,0,0,1,1.086,1.086A1.168,1.168,0,0,1,252,12.572" transform="translate(-139.51 -6.87)" fill="#15af83"/>
        <circle id="Ellipse_63" data-name="Ellipse 63" cx="0.272" cy="0.272" r="0.272" transform="translate(111.666 4.067)" fill="#cfffef"/>
      </g>
      <path id="letter-x-svgrepo-com-2" data-name="letter-x-svgrepo-com" d="M172.621,170.535,120.307,96.748,172.353,21.83a3.511,3.511,0,0,0,.189-3.714,3.735,3.735,0,0,0-3.281-1.91H125.338a3.737,3.737,0,0,0-3.075,1.574L93.274,58.647,64.286,17.764a3.778,3.778,0,0,0-3.075-1.574H17.3a3.716,3.716,0,0,0-3.28,1.91,3.509,3.509,0,0,0,.189,3.714l52.03,74.934L13.928,170.535a3.537,3.537,0,0,0-.221,3.729A3.774,3.774,0,0,0,17,176.19H63.151a3.758,3.758,0,0,0,3.091-1.589l27.032-38.942L120.323,174.6a3.758,3.758,0,0,0,3.091,1.589h46.132a3.8,3.8,0,0,0,3.312-1.926,3.539,3.539,0,0,0-.237-3.729Z" transform="translate(389.722 1011.81)" fill="rgba(64,192,231,0.75)"/>
      <path id="letter-p-svgrepo-com-2" data-name="letter-p-svgrepo-com" d="M161.477,15.42H51.936a7.105,7.105,0,0,0-1.215.273H32c-3.588,0-6.481,3.411-6.481,7.641V367.779c0,4.23,2.893,7.641,6.481,7.641H95.365c3.588,0,6.481-3.411,6.481-7.641V258.342h59.631c57.374,0,104.043-54.479,104.043-121.444C265.549,69.933,218.851,15.42,161.477,15.42ZM156.5,186.738a30.292,30.292,0,0,1-3.067.2H102.945c-.145,0-.26-.136-.405-.2a1.375,1.375,0,0,1-.694-.341,2.115,2.115,0,0,1-.608-1.467v-96.1a2.113,2.113,0,0,1,.608-1.467,1.152,1.152,0,0,1,.637-.307c.174-.068.26-.2.434-.2H153.4c1.157,0,2.315.1,3.443.2,20.976,2.149,37.526,23.675,37.526,49.84.029,26.3-16.694,47.93-37.873,49.84Z" transform="translate(124.59 812.58)" fill="rgba(64,192,231,0.75)"/>
      <g id="letter-r-svgrepo-com_1_" data-name="letter-r-svgrepo-com (1)" transform="translate(268 1096)">
        <circle id="Ellipse_60" data-name="Ellipse 60" cx="45" cy="45" r="45" transform="translate(2 2)" fill="#4fd1d9"/>
        <path id="Path_100" data-name="Path 100" d="M54.433,18.841a12.3,12.3,0,0,1,4.865,3.6A17.544,17.544,0,0,1,62,26.769a13.487,13.487,0,0,1,.9,5.586,15.945,15.945,0,0,1-1.8,7.387,9.621,9.621,0,0,1-6.126,5.045,9.089,9.089,0,0,1,5.045,4.144c1.081,1.8,1.441,4.5,1.441,8.108v3.423a26.448,26.448,0,0,0,.36,4.865A5.1,5.1,0,0,0,63.8,68.39v1.261H51.73c-.36-1.081-.541-2.162-.721-2.883a34.256,34.256,0,0,1-.541-4.5V57.4c0-3.243-.541-5.586-1.8-6.667-1.081-1.081-3.243-1.622-6.306-1.622H31.731v20.54H21.1V17.4H46.145a27.576,27.576,0,0,1,8.288,1.441M31.911,26.589V40.643H43.622a12.361,12.361,0,0,0,5.225-.9c1.982-1.081,3.063-2.883,3.063-5.946,0-3.243-1.081-5.225-3.063-6.306a12.02,12.02,0,0,0-5.045-.9H31.911" transform="translate(5.827 3.388)" fill="#fff"/>
      </g>
    </g>
    <g id="headphone-svgrepo-com" transform="translate(1619.429 102.185) rotate(41)">
      <path id="Path_242" data-name="Path 242" d="M68.123,70.832C50.264,103.574,50.534,106.28,42.146,101.41s-11.636-9.2,6.494-41.672,23.271-32.2,31.66-27.33c8.118,4.6,5.682,5.953-12.177,38.424" transform="translate(56.997 42.676)" fill="#454749"/>
      <path id="Path_243" data-name="Path 243" d="M76.6,76.411C65.234,97.246,51.163,107.258,44.4,103.47,36.01,98.6,40.339,98.6,58.2,65.858S73.893,29.327,82.281,34.2c6.765,3.788,5.682,21.377-5.682,42.213" transform="translate(65.299 46.839)" fill="#258399"/>
      <path id="Path_244" data-name="Path 244" d="M26.974,70.832c17.859,32.742,17.589,35.448,25.977,30.577s11.636-9.2-6.494-41.672-23.271-32.2-31.66-27.33c-8.118,4.6-5.682,5.953,12.177,38.424" transform="translate(14.262 42.676)" fill="#454749"/>
      <path id="Path_245" data-name="Path 245" d="M16.528,76.411c11.365,20.836,25.436,30.848,32.2,27.059,8.388-4.871,4.059-4.871-13.8-37.613S19.234,29.327,10.845,34.2c-6.765,3.788-5.682,21.377,5.682,42.213" transform="translate(7.931 46.839)" fill="#258399"/>
      <path id="Path_246" data-name="Path 246" d="M27.165,147.6s14.612,3.788,15.694,0c6.765-21.918-30.848-34.907-30.848-59.8,0-40.048,31.93-72.519,71.166-72.519S154.345,47.754,154.345,87.8c0,24.895-37.613,37.883-30.848,59.8,1.082,3.788,15.694,0,15.694,0a83.564,83.564,0,0,0,25.165-59.8c0-45.73-36.26-82.8-81.178-82.8S2,42.071,2,87.8a83.564,83.564,0,0,0,25.165,59.8" transform="translate(0 0)" fill="#3baacf"/>
      <path id="Path_247" data-name="Path 247" d="M21.383,37.048c9.471-1.894,21.648-15.424,46.272-15.424s37.071,13.8,46.272,15.424c3.788.812,10.283-5.141,10.283-5.141C109.326,14.859,91.737,6.2,67.654,6.2S25.983,14.859,11.1,31.906c0,.271,6.494,5.953,10.283,5.141" transform="translate(15.524 2.047)" fill="#454749"/>
    </g>
  </g>
</svg>
